<svg version="1.2" xmlns="http://www.w3.org/2000/svg" viewBox="0 0 2753 1161" width="100" height="42">
	<title>signature-svg</title>
	<style>
		.s0 { fill: #000000 } 
	</style>
	<g id="Layer">
		<path id="Layer" fill-rule="evenodd" class="s0" d="m985.6 112.5c7.8 14.7 1.5 32-50.1 138.5-39.6 81.7-66.4 139.7-91.1 197.3-9.7 22.6-12.9 32.4-11.9 35.9 0.6 1.8 1.2 1.9 5.8 1.3 19.9-2.7 93.7-27.5 155.7-52.3 34.6-13.8 49.2-20.3 78-34.2 14.6-7.1 28.7-13.6 31.3-14.4 9.3-3.1 15.7-1.7 20.5 4.4 7.2 9.2 1.4 18.4-36.9 59-29 30.8-42.9 46.9-42.9 50.2 0 2.5-9.7 21.3-23.3 45.5-16.7 29.6-27.9 51.8-34.5 68.3-6.5 16.4-20.4 59-19.8 60.7 0.3 0.7 1.3 1 2.3 0.6 8.2-2.8 42.8-36.3 56.6-54.6 8.7-11.5 14.4-21.2 30.1-51 16.6-31.4 28.1-51.6 44.4-77.7 46.5-74.5 100.8-146 145.7-191.9 17.9-18.3 36.5-34.8 40.3-35.8 3.3-0.8 6.9 1.5 10.7 6.7 2.6 3.6 3 5.1 3 10.3 0 7.7-2.7 13.5-18.9 40.5-27 44.9-82.7 124.1-169.6 241.2-46.5 62.6-57.8 80.2-60.9 94.8-1.1 5.5-1.5 18.2-0.5 18.2 2.2 0 27.2-19.6 48.4-37.9 29-25.2 47.3-45.5 63.7-70.5 34.3-52.3 81.5-110.9 120.7-150.1 17.7-17.6 29.8-27.6 39.5-32.4 9.3-4.7 10.8-4.7 14.6-0.7 3.4 3.6 7.5 12.9 7.5 16.8 0 9.1-36.3 54.2-115.4 143.3-8.7 9.9-17.3 19.4-18.9 21.2l-2.9 3.1 0.1 19.7c0.1 22.2 1.5 31.2 6.2 41.4 8 17.4 20.8 25.1 47.2 28.4l10.9 1.4 11.1-23.1c40.7-84.6 63.8-126.8 93.7-171.6 44.1-66 91.5-120.2 163.6-187.1 25.8-23.9 60.1-51.1 91-72.1 62.9-42.9 144.4-79.2 204.4-91.2 25.4-5 46.1-6.6 87.9-6.6 34.2 0 51.7 1 62.9 3.5 14.2 3.3 41.7 15.2 55.2 24 11.4 7.4 23.9 20.4 28.3 29.5 15.8 32.4 6.3 73.3-26.6 114.8-16 20.1-35.5 39.1-71.2 69.2-9.9 8.3-22.9 19.4-29 24.5-6 5.2-13.5 11.1-16.5 13.2-7.3 5.2-9.7 9.6-11.6 22.4-1.8 12.3-4.6 23.6-8 32.8-3.7 9.8-32 63.4-55.3 104.6-2.8 4.9-5.1 9.6-5.1 10.2 0 3.8 7.3-1.1 20.5-13.7 17.6-17 21.8-18.9 28-12.7 9.3 9.3 6.3 33.3-9.8 78.2-14.7 40.9-18.5 62.7-12.7 72.3 2.4 4 6.3 4.7 14 2.8 15-3.9 30.1-12.6 45.7-26.5 16.7-14.8 23.9-24.5 37.7-50.9 15.6-29.9 25.3-44.3 47.1-70.4 8-9.5 14.5-17.9 14.5-18.7 0-0.8-1.5-8.2-3.2-16.5-3.2-14.6-3.3-15.9-3.3-38.6 0.1-32.8 3.2-47.6 13.8-65.3 19.6-32.7 43.2-50.7 68.7-52.4 16.6-1.1 29.5 4 42.1 16.6 11 11.1 20.1 28.1 28.3 52.8 1.5 4.6 3.5 8.7 4.4 9.2 2.1 1.2 6.3-0.4 19.2-7.2 27.4-14.5 91.9-35.1 137.4-43.8 14.7-2.8 26.3-2.4 30 1 3.6 3.4 5 9.2 4.2 17.8-1.5 16.2-4.3 20.1-45.6 63.8-50.1 53-85.3 92.9-111.7 126.7-14.4 18.3-15.6 22-10 29 2.7 3.4 3.2 4.8 3.1 9.2-0.2 6.5-3.7 14.2-7.8 16.8-4.5 2.8-13.2 1.9-24-2.6-15-6.2-67.6-35.2-85.1-46.9-12.1-8-16-11.2-29.9-24.5-9.7-9.4-12.1-11.2-13.1-10-0.7 0.7-9.4 13.4-19.3 28.3-35 52.5-40 62.7-38.9 78.8 1.5 22.6 20.4 37.1 56.1 43.3 13.6 2.4 39.5 1.4 53.6-1.9 26.8-6.4 49.8-17.5 72.8-35.1 5.2-3.9 12.8-9.7 17-12.9 8.7-6.7 16.8-11.1 18.4-10.1 2.4 1.5 0.2 11.3-4.5 20.7-17.9 35.2-55.6 62.6-97.2 70.7-21.9 4.2-56.5 5-79 1.9-14.9-2-31.7-11.3-46.4-25.8-9-8.8-14.4-16.6-18.4-26.9l-2.9-7.2-6 5.2c-19.3 17-34.1 27.2-48 33-21.1 8.9-40.8 9.1-51.9 0.5-9.3-7.1-13.2-15.1-14.9-31-2-17.3 0.9-35.1 10-63.3 2.6-8.3 5.2-16.8 5.5-19l0.7-3.9-4.2 4c-11.1 10.6-59.5 65.5-77.4 88-13.8 17.3-17.7 21.6-22.5 24.6-5 3.2-10.4 3.8-13.8 1.4-3.4-2.4-5.6-10.6-5.1-18.9 0.5-7.7 2.5-12.6 8.8-21.1 8.6-11.8 41.1-65.9 51.3-85.5 3.2-6.3 12.8-23 21.2-37 27.3-45.7 45.7-79 60.4-109 9.8-20.1 11.2-24 8.8-24-2.7 0-52.2 36.8-77.7 57.7-14.5 12-37.2 34.9-52.1 52.8-21.6 26-61.4 77.9-68.3 89.1-5.3 8.8-6.5 13.6-7.6 32.3-0.6 11.1-1.6 19-3 23.9-5.4 19.3-18.9 38.5-40.3 57.1-12.5 11-18 14.7-24.5 16.7-5 1.5-5.4 1.5-9.7-0.6-3.3-1.6-4.9-3.2-6.7-6.8-2-4.2-2.3-6.1-2.2-16.7 0-14.1 1.7-21.1 7.5-32.8 2.2-4.3 3.9-8.1 3.7-8.2-1.1-1.1-20.7 15.3-34.9 29.1-22.3 21.8-27.9 25.1-35.7 21-5.4-2.9-12.2-11.9-12.2-16.3 0-2 11.2-25.4 18.2-37.8 2.4-4.4 8.5-15.2 13.5-24.1 12.8-22.5 20.4-37.7 19.4-38.7-2.7-2.7-17.1 10.4-35 31.8-6.5 7.7-25.9 32.2-43.1 54.5-17.3 22.3-38.1 49.2-46.3 59.8-55.7 71.9-111.5 128.4-136.5 138.3-4.8 2-7.6 2.3-17.7 2.4-11.5 0-12.3-0.1-18.8-3.2-12.7-6-21.5-18.5-27.2-38.6-3.7-13-4.7-23.8-4.7-47.7 0-34.2 3.5-61.4 11.8-92.3 2.4-9.2 4.7-18.7 5-21 0.7-5.2-0.5-6.5-9.6-9.7-3.6-1.3-11-4.4-16.5-7-25-11.6-36-22.6-48.3-48.2-3.1-6.3-6.1-11.2-7.3-11.9-1.2-0.6-4.4-0.9-7.1-0.7-6.7 0.7-15.8 7-32.2 22.6-44.2 42.2-73.2 64.4-84 64.4-7.1 0-23.4-11.3-28.7-19.8-1.2-2-2.9-6.4-3.8-9.9l-1.6-6.4-18.3 17.5c-17.5 16.6-26.6 24.1-34 27.8-6.8 3.5-16.5-1-21.7-9.9-7.5-12.7-8.8-29-4.1-52.3 1.4-7.2 2.6-14.4 2.6-16l-0.1-2.7-3 3.5c-1.7 1.9-15.6 22.2-30.9 45-38.9 58-59.7 86.2-71 96.4-3.9 3.5-4.6 3.8-8.6 3.3-10.7-1.2-19.7-15-16.4-25.3 9-28.3 158.9-231.6 218.9-296.9 6.9-7.5 12.1-14.2 12.1-15.7 0-1.7-16.7 3.7-54 17.4-48 17.6-89.7 31.1-139 44.8-14 3.8-26.7 7.5-28.1 8.1-8.7 3.5-24.8 45.8-75.9 199.4-45.2 135.9-55.2 163.6-73 201.7-31.8 68.3-74.3 124.8-116.8 155.5-22.3 16.1-43.6 22.9-74.4 24-19.1 0.7-30.8-0.5-47.4-4.7-30.9-7.8-56.9-23.2-82.4-48.9-24.8-24.9-44.1-55.1-60.4-94.6-15.5-37.7-31-94.8-33.7-124.3-3.2-35.4 7.7-64.1 37.3-98.7 11-12.8 37.3-39 50.3-50 58.6-49.9 132-87.5 242-123.8 30.5-10.1 42.9-13.7 102.4-29.2 76.9-20 103.3-27.8 106.3-31.3 2.4-2.7 4.8-7.8 9.4-20.2 11-30.2 53.3-125.8 99.9-226 3.7-8 14.3-30 23.5-49 16.1-33 25-52.7 25-54.9 0-3.1-5.7 1.1-21.5 15.6-21.8 20.1-46.5 46.8-114.5 123.8-94.4 106.8-132 148.6-160.6 178.5-19.2 20.1-36.5 39.1-47.2 51.8-18.5 22.1-24.1 25.9-32 21.8-5.3-2.8-8.5-7.2-9-12.4-0.4-4.6-0.2-5.1 5.5-12.2 8.1-10.1 20.7-24.1 47.4-52 58.5-61.5 78.8-83.5 142.4-154.5 119.1-132.9 169.4-184.2 195.8-199.8 11.1-6.6 17.5-4.3 24.3 8.8zm906.4 21.6c-26.4 2.2-58.9 8-82.2 14.4-74 20.5-155.3 66.1-232 130.2-80 66.8-157.2 157-207.9 243-26.3 44.6-61.5 114-65.8 129.8-0.8 3-0.8 4.1 0.2 4.8 1.9 1.3 18-0.1 37.8-3.3 55-9.1 119.1-26.3 165.9-44.5 22.8-8.9 30.7-13.1 38-20.5 11.4-11.3 73.1-84.2 124.9-147.3 27.7-33.8 42.7-49.7 46.9-49.7 4.9 0 11 8.7 12.7 18.2 0.5 2.8 0.1 4.9-1.8 9.1-3.5 7.7-18.1 31.7-39.6 65.1-15 23.2-28 44-33.9 54-0.3 0.6 1 0 2.9-1.1 1.9-1.1 10.4-6 18.9-10.9 15.9-9 50.1-29.8 71.5-43.4 35.3-22.5 42.8-28.1 69.7-52.2 38-33.9 54-45.4 74.5-53.3 5.4-2.1 13.8-6.6 19.6-10.4 21.1-14 64.3-50.5 89.3-75.5 30.7-30.8 44.8-51.6 53.9-79.6 5.1-15.7 5.1-20.4 0.1-29.5-2.1-3.9-5.4-8.9-7.3-11.2-12.7-15.7-44.2-29.5-79.4-34.9-12.4-1.9-60.8-2.7-76.9-1.3zm-661.4 219.9c-1 0-11.5 12.5-24 28.5-33.3 42.9-65.4 89-63.3 91.2 2 2 78.1-100.9 86.1-116.5 0.9-1.7 1.5-3.2 1.2-3.2zm873.4 22.9c-9.4 3-23.3 12.4-30.9 20.6-14.9 16.4-20.9 36.2-19.8 65.4 0.9 24.3 6.8 41.8 19.7 59 12.2 16.1 24 25.1 61.2 46.4 27.7 15.9 36.9 20.7 39.9 20.7 2 0 2.1-0.4 1.5-4.8-0.4-2.6-1.8-9.2-3.1-14.7-4.6-19.4-8-48.5-10.5-88.5-2.7-44.1-6.4-64.3-14.4-79.5-3.9-7.6-15.5-19.4-22.1-22.6-5.3-2.5-16.6-3.6-21.5-2zm155.3 47.5c-28.1 10.2-41.1 16.2-52.9 24.3-4 2.7-9.1 5.7-11.5 6.7-2.4 1-5.1 2.2-5.9 2.6-1.2 0.6-1.5 3.1-1.4 13.6 0.2 13.8 4.6 56.5 6.8 65 2.6 10.2 2.2 10.2 14.7-2.6 44.1-45.4 113.9-121.9 113.9-125 0-3.9-32.1 3.9-63.7 15.4zm-536.5 104c-0.3-0.2-5.6 3-11.9 7.2-6.3 4.2-24.6 15.4-40.7 25-16.1 9.6-32.1 19.5-35.5 21.9-12.1 8.4-19.6 17.4-31.6 37.8-6.5 10.9-13.4 24.7-12.7 25.4 1.1 1.1 5.6-1.5 27.5-16 12.6-8.4 25.6-16.8 28.7-18.7 12.8-7.7 73.2-71.5 75.9-80.1 0.4-1.1 0.5-2.2 0.3-2.5zm-993.8 13.7c-160.5 42.1-254.1 78.8-330 129.4-61 40.7-97.4 81.2-109.7 122-2.4 8.1-2.7 10.6-2.7 25-0.1 17.4 0.8 23.3 7 50.5 10.2 43.7 24.4 86.2 35.2 104.7 20 34.2 62.5 76.6 88.7 88.3 28.9 13 64.2 14.6 92.7 4.4 20-7.2 34.4-17 54.4-36.9 39.1-39 72.3-91.6 98.1-155.5 10.4-25.6 31.5-85.5 62.3-176.5 10-29.7 23.4-68.6 29.7-86.5 24.8-70.2 27.2-77.8 25.1-79.2-3.1-1.9-7-1.1-50.8 10.3zm739.9 112.8c-40.8 13.7-80.3 22.5-148.3 33.1-17.6 2.7-32.3 5.3-32.7 5.7-0.9 1-8 23.2-11.3 35.3-13.7 50.7-15.1 102.9-3.7 133.1 4.1 10.9 9.1 13.2 20 9 24.7-9.3 75.4-59.1 129.1-126.6 7.4-9.3 25.6-32.1 40.3-50.5 27.7-34.5 32.3-41 31.3-43.5-1-2.6-6.6-1.6-24.7 4.4z"/>
	</g>
</svg>